<?xml version="1.0" encoding="UTF-8" standalone="no"?>
<!-- Created with Inkscape (http://www.inkscape.org/) -->

<svg
   width="123.33548mm"
   height="123.41454mm"
   viewBox="0 0 123.33548 123.41454"
   version="1.1"
   id="svg5"
   inkscape:version="1.1.2 (b8e25be833, 2022-02-05)"
   sodipodi:docname="Lime 2017 (Icon).svg"
   xmlns:inkscape="http://www.inkscape.org/namespaces/inkscape"
   xmlns:sodipodi="http://sodipodi.sourceforge.net/DTD/sodipodi-0.dtd"
   xmlns="http://www.w3.org/2000/svg"
   xmlns:svg="http://www.w3.org/2000/svg">
  <sodipodi:namedview
     id="namedview7"
     pagecolor="#ffffff"
     bordercolor="#666666"
     borderopacity="1.0"
     inkscape:pageshadow="2"
     inkscape:pageopacity="0.0"
     inkscape:pagecheckerboard="0"
     inkscape:document-units="mm"
     showgrid="false"
     inkscape:zoom="0.64052329"
     inkscape:cx="231.84169"
     inkscape:cy="496.46907"
     inkscape:window-width="1920"
     inkscape:window-height="1017"
     inkscape:window-x="-8"
     inkscape:window-y="-8"
     inkscape:window-maximized="1"
     inkscape:current-layer="layer1" />
  <defs
     id="defs2" />
  <g
     inkscape:label="Layer 1"
     inkscape:groupmode="layer"
     id="layer1"
     transform="translate(-43.640538,-17.189808)">
    <g
       id="Page-1"
       transform="matrix(0.18381343,0,0,0.18381343,43.640538,17.190271)"
       style="fill:none;fill-rule:evenodd;stroke:none;stroke-width:1">
      <path
         d="M 335.49094,671.40948 C 150.21331,671.40948 0,521.09988 0,335.70348 c 0,-185.4132 150.21331,-335.706 335.49094,-335.706 185.28603,0 335.49094,150.2928 335.49094,335.706 0,185.3964 -150.20491,335.706 -335.49094,335.706"
         id="Fill-1"
         fill="#23d000" />
      <path
         d="m 631.50787,335.70096 c 0,-163.5984 -132.52585,-296.2176 -296.01945,-296.2176 -163.4768,0 -296.002651,132.6192 -296.002651,296.2176 0,163.5816 132.525851,296.2176 296.002651,296.2176 163.4936,0 296.01945,-132.636 296.01945,-296.2176"
         id="Fill-3"
         fill="#fefefe" />
      <path
         d="m 352.18952,117.29256 v 147.9324 c 0,18.4716 19.97919,30.0048 35.95415,20.7648 l 128.03473,-73.9536 c 17.88054,-10.332 21.2132,-34.5156 7.21937,-49.7112 -34.82928,-37.7496 -80.86537,-64.9656 -132.82806,-76.3812 -19.75253,-4.3428 -38.38019,11.0964 -38.38019,31.3488"
         id="Fill-5"
         fill="#bef000" />
      <path
         d="m 390.57223,585.44892 c 51.9543,-11.4156 97.99878,-38.6232 132.81966,-76.3812 14.00223,-15.1956 10.66956,-39.3624 -7.21097,-49.7028 l -128.03473,-73.962 c -15.97496,-9.2232 -35.95415,2.3016 -35.95415,20.7648 v 147.9408 c 0,20.2524 18.61926,35.6748 38.38019,31.3404"
         id="Fill-7"
         fill="#bef000" />
      <path
         d="m 138.07805,240.93384 c -17.85536,-10.3236 -40.45367,-1.176 -46.61532,18.5472 -7.504789,24.066 -11.592969,49.6776 -11.592969,76.2216 0,26.5524 4.08818,52.1388 11.592969,76.2132 6.16165,19.7148 28.75996,28.8708 46.61532,18.5388 l 128.08509,-73.9872 c 15.96657,-9.24 15.96657,-32.3148 0,-41.538 z"
         id="Fill-9"
         fill="#bef000" />
      <path
         d="m 579.54098,259.48104 c -6.17004,-19.7232 -28.75996,-28.8624 -46.63211,-18.5472 l -128.08509,73.9956 c -15.97496,9.2232 -15.97496,32.298 0,41.5464 l 128.08509,73.9872 c 17.87215,10.3236 40.46207,1.1676 46.60693,-18.5472 7.52997,-24.0744 11.60136,-49.6608 11.60136,-76.2132 0,-26.544 -4.07139,-52.1556 -11.57618,-76.2216"
         id="Fill-11"
         fill="#bef000" />
      <path
         d="m 154.81776,212.02608 128.04312,73.9704 c 15.95817,9.2316 35.94576,-2.3016 35.94576,-20.7732 v -147.9408 c 0,-20.2356 -18.63606,-35.6748 -38.3886,-31.3404 -51.96269,11.424 -98.01557,38.6316 -132.81126,76.3812 -14.01901,15.1956 -10.66956,39.3792 7.21098,49.7028"
         id="Fill-13"
         fill="#bef000" />
      <path
         d="m 282.85248,385.40376 -128.03472,73.962 c -17.88054,10.3404 -21.22999,34.5072 -7.21098,49.7028 34.79569,37.758 80.84018,64.9656 132.81126,76.3812 19.75254,4.3344 38.3886,-11.088 38.3886,-31.3488 v -147.9324 c 0,-18.4632 -19.96241,-29.988 -35.95416,-20.7648"
         id="Fill-15"
         fill="#bef000" />
      <path
         d="m 366.25722,335.70096 c 0,16.9932 -13.76718,30.786 -30.76628,30.786 -16.99071,0 -30.76628,-13.7928 -30.76628,-30.786 0,-16.9932 13.77557,-30.7944 30.76628,-30.7944 16.9991,0 30.76628,13.8012 30.76628,30.7944"
         id="Fill-17"
         fill="#23d000" />
    </g>
  </g>
</svg>
